<?xml version="1.0" encoding="UTF-8"?>
<svg xmlns="http://www.w3.org/2000/svg" width="145" height="89" viewBox="0 0 145 89" fill="none">
  <g clip-path="url(#clip0_439_473)">
    <path d="M62.9846 12.6657V20.1965C71.702 19.7355 80.4172 19.2152 89.1301 18.6356C89.421 18.615 89.7086 18.5945 90.0064 18.5705C91.1394 18.4884 92.2724 18.4028 93.4089 18.3206C96.0515 18.1255 98.6941 17.9509 101.337 17.7832C102.025 17.7387 102.709 17.6942 103.397 17.6497C103.808 17.6257 104.219 17.5984 104.643 17.571C104.996 17.5504 105.349 17.5265 105.715 17.5025C106.988 17.4477 108.265 17.4546 109.542 17.4546C109.655 21.1823 109.768 24.9101 109.884 28.7507C113.907 26.3249 117.916 23.8751 121.909 21.4014C122.286 21.1652 122.659 20.929 123.046 20.686C123.761 20.2341 124.473 19.7823 125.185 19.327C125.504 19.1251 125.825 18.9231 126.154 18.7143C126.435 18.5363 126.718 18.356 127.003 18.1734C127.457 17.9201 127.912 17.7935 128.369 17.7935V21.5589H131.107V56.1319H128.369V59.2127C127.15 58.7506 126.031 58.2097 124.894 57.5696C124.552 57.3779 124.213 57.1862 123.861 56.9911C123.498 56.7857 123.135 56.5804 122.762 56.3681C122.389 56.1559 122.012 55.9471 121.629 55.728C120.451 55.0639 119.277 54.3999 118.1 53.7358C117.716 53.5201 117.333 53.3045 116.939 53.082C114.979 51.9752 113.549 51.1662 112.65 50.655C112.342 50.4804 112.03 50.3059 111.712 50.1244C111.442 49.9704 111.168 49.8164 110.887 49.6589C110.442 49.4124 109.994 49.1728 109.538 48.9469V65.72C108.254 65.7108 106.956 65.7017 105.646 65.6926C101.381 65.6652 97.1195 65.6584 92.8544 65.6584C90.2699 65.6584 87.6889 65.6549 85.1045 65.631C82.8487 65.6104 80.5963 65.607 78.3405 65.6139C77.1493 65.6173 75.9581 65.6139 74.7668 65.6002C69.1769 65.5214 65.0316 65.7953 60.5474 69.3347C59.4417 70.1802 58.2573 70.9059 57.0798 71.6487C56.604 71.9568 56.1282 72.2683 55.6524 72.5764C53.8244 73.7676 51.9863 74.9452 50.1481 76.1193C49.8366 76.3178 49.5251 76.5198 49.2067 76.7252C47.3309 77.9232 45.4311 79.046 43.4731 80.1003C44.0892 75.1848 45.8418 70.4746 47.2384 65.7234H18.4846C17.8068 62.4475 17.1291 59.1716 16.4308 55.7965C16.0953 54.3839 15.7564 52.9713 15.4141 51.5587C14.5275 47.9165 13.7779 44.2436 12.9974 40.5775C12.1006 36.3466 11.1763 32.1225 10.1563 27.9155C10.0787 27.5937 10.0011 27.2686 9.92348 26.9399C9.8573 26.6684 9.78998 26.3934 9.72152 26.115C9.62796 25.5924 9.58118 24.7606 9.58118 23.6196C12.0663 23.5066 14.5515 23.3936 17.1119 23.2772V20.5388H22.9312C23.0453 21.3307 23.1594 22.1294 23.2735 22.9349H26.6966C26.6555 22.7022 26.6133 22.4671 26.5699 22.2298C26.3816 21.1755 26.1968 20.1177 26.0119 19.0634C25.9469 18.6972 25.8819 18.3309 25.8134 17.9509C25.7518 17.5984 25.6902 17.2458 25.6251 16.8829C25.5681 16.5589 25.5099 16.2314 25.4506 15.9005C25.3661 15.3414 25.3239 14.7196 25.3239 14.0349C25.511 14.0281 25.6993 14.0212 25.8887 14.0144C28.3054 13.922 30.7187 13.8296 33.1354 13.7371C33.5256 13.7234 33.9193 13.7063 34.3232 13.6926C38.5609 13.5283 42.7953 13.3572 47.0296 13.1552C47.3605 13.1392 47.6949 13.1233 48.0326 13.1073C49.5798 13.032 51.1271 12.9567 52.6743 12.8779C56.1145 12.7068 59.5376 12.6417 62.9812 12.6691L62.9846 12.6657Z" fill="#FFFFFF"></path>
    <path d="M50.1891 29.6746C52.0273 30.7974 53.1945 32.4918 53.7422 34.5731C54.0743 37.1814 53.708 39.4817 52.373 41.7615C51.0106 43.3943 49.258 44.0653 47.1768 44.2604C44.0036 44.2706 42.1072 43.9489 39.8 41.6896C38.2083 39.4304 38.465 36.5139 38.6841 33.8884C39.1154 32.0947 39.913 31.1466 41.4431 30.1436C43.9865 28.7025 47.502 28.4115 50.1925 29.6712L50.1891 29.6746Z" fill="#06081A"></path>
    <path d="M86.6039 29.0962H92.0808V34.5731H95.5039V29.0962H101.323V44.5H95.5039V39.0231H92.0808V44.1577H86.6039V29.0962Z" fill="#06081A"></path>
    <path d="M59.5615 29.0962H65.7231C66.5549 31.1227 67.3833 33.1525 68.2082 35.1824C68.4889 35.8739 68.773 36.5619 69.0537 37.2534C69.4611 38.2427 69.865 39.2353 70.2655 40.228C70.3922 40.5361 70.5188 40.8476 70.6523 41.166C70.7687 41.4535 70.8851 41.741 71.0049 42.0388C71.1076 42.2922 71.2103 42.5455 71.3198 42.8056C71.4681 43.2529 71.5423 43.8188 71.5423 44.5035H65.3808C65.2667 43.8257 65.1526 43.1411 65.0385 42.4496C64.1964 42.4702 63.3543 42.501 62.5122 42.5352C62.2726 42.5386 62.033 42.5455 61.7865 42.5489C61.2662 42.5649 60.6375 42.6459 59.9004 42.7919C59.6745 43.2438 59.4486 43.6956 59.2158 44.1612H53.7389C54.0299 42.7029 54.3961 41.587 54.9644 40.2315C55.0534 40.0227 55.1389 39.8104 55.2279 39.5948C55.5052 38.9273 55.7893 38.2598 56.07 37.5923C56.3473 36.9316 56.6211 36.2744 56.8984 35.6137C57.1654 34.977 57.429 34.3438 57.696 33.7071C58.3327 32.177 58.9488 30.64 59.5581 29.0996L59.5615 29.0962Z" fill="#06081A"></path>
    <path d="M83.8654 28.7539C84.0936 28.9821 84.1781 29.4521 84.2009 30.123C84.1975 30.5304 84.2351 30.9207 84.2283 31.3417C84.2283 31.7525 84.2214 32.1632 84.218 32.5843C84.2146 32.9026 84.2112 33.2176 84.2043 33.5462C83.8723 33.4914 83.5402 33.4332 83.1979 33.375C81.2765 33.0715 79.4371 33.2427 77.6799 33.8885C76.831 35.2029 76.7249 36.1306 77.0159 37.6539C77.4129 38.4617 77.7518 39.0744 78.3851 39.7077C79.3641 39.7317 80.3362 39.7385 81.3152 39.7282C81.5914 39.7282 81.8698 39.7271 82.1505 39.7248C82.8351 39.7214 83.5197 39.7146 84.2009 39.7077V43.8154C81.4179 44.8971 77.7039 45.0785 74.8936 43.9455C72.9287 42.8741 71.7238 41.2378 71.0255 39.1395C70.5052 36.7502 70.4744 34.2616 71.7443 32.1153C74.8936 28.0111 79.0902 27.9597 83.8586 28.7539H83.8654Z" fill="#06081A"></path>
    <path d="M38.1674 29.267C37.3116 29.9516 36.627 31.8343 36.627 33.2035C36.271 33.183 35.9184 33.1624 35.5521 33.1419C35.0832 33.1248 34.6142 33.1111 34.1452 33.094C33.9125 33.0803 33.6797 33.0666 33.4367 33.0495C32.1393 33.0187 31.6087 33.0871 30.6503 33.9874C29.9554 35.1992 29.952 35.9283 30.1231 37.3078C30.4837 38.2914 31.0542 39.0901 31.8347 39.7039C32.6459 39.7279 33.4606 39.7313 34.2719 39.7245C34.71 39.7245 35.1482 39.7176 35.6 39.7142C35.9389 39.7108 36.2744 39.7074 36.6235 39.7005C36.9111 40.19 37.1952 40.6829 37.4793 41.1759C37.6368 41.4497 37.7977 41.7236 37.962 42.0077C38.2107 42.5234 38.3351 43.1236 38.3351 43.8082C35.0729 44.5408 31.1637 45.2904 27.9905 43.8664C26.0291 42.5725 24.5949 40.5734 23.9582 38.3313C23.6775 35.8016 23.7288 33.5527 25.3274 31.4851C29.1407 27.463 33.1252 27.8088 38.1674 29.267Z" fill="#06081A"></path>
    <path d="M38.3317 29.8971C38.5552 29.8226 38.7992 29.84 39.01 29.9453V29.9453C39.2361 30.0584 39.4137 30.2617 39.439 30.5132C39.5245 31.361 39.0779 31.9628 38.6808 32.8615C38.1947 34.176 38.0441 35.576 37.9962 36.9692C37.9447 38.2674 38.2629 39.1823 38.3656 39.7882C38.4286 40.1597 38.1005 40.3923 37.7236 40.3923H37.3707C37.3328 40.3923 37.2965 40.4073 37.2697 40.4341V40.4341C37.204 40.4998 37.0941 40.4863 37.0463 40.4066L36.8247 40.0373C36.7092 39.8447 36.4754 39.7582 36.2623 39.8292C36.0835 39.8888 35.9037 39.9488 35.7214 40.0096C35.6407 40.0364 35.5572 40.0546 35.4726 40.0637C34.4102 40.1782 33.4926 40.2673 32.6095 40.0934C31.2839 39.8323 30.2231 38.7402 29.8828 37.4327C29.7866 37.0633 29.7369 36.6867 29.7225 36.2843C29.6902 35.3801 29.9652 34.4762 30.5264 33.7665C30.645 33.6166 30.7647 33.4802 30.8855 33.3575C31.2494 32.9879 31.7546 32.8069 32.2713 32.7615C33.4717 32.6562 34.6856 32.768 35.8676 33.0212C36.2765 33.1088 36.6874 32.846 36.757 32.4336V32.4336C36.9203 31.7141 37.0858 31.149 37.4019 30.5537C37.5533 30.2685 37.821 30.0674 38.1273 29.9653C38.1952 29.9426 38.2633 29.9199 38.3317 29.8971Z" fill="#FFFFFF"></path>
    <path d="M32.1769 16.4312H34.9153V19.1696H36.9692V16.4312H40.05V24.3042H36.9692V21.5658H35.2576V24.3042H32.1769V16.4312Z" fill="#06081A"></path>
    <path d="M41.4192 16.431C42.364 16.4104 43.3122 16.3899 44.2877 16.3659C44.5855 16.3557 44.8833 16.3488 45.188 16.3385C45.8726 16.3317 46.5572 16.3796 47.2384 16.431C47.6948 17.1156 47.923 17.8002 47.923 18.4848H44.5V19.1694H46.8961V21.2233H44.5V21.9079H48.6077V24.304H41.4192V16.431Z" fill="#06081A"></path>
    <path d="M48.95 16.4304H52.373C52.599 17.2212 52.8249 18.0119 53.0576 18.8266H53.7423C53.8484 18.4946 53.9545 18.1625 54.064 17.8202C54.3059 17.1219 54.541 16.6586 54.7692 16.4304C55.6831 16.3825 56.5903 16.4167 57.5076 16.4304C57.1003 17.5772 56.5731 18.563 55.9467 19.5968C55.0396 21.1851 54.8582 22.4859 54.7692 24.3035H51.6884C51.6816 23.8791 51.6747 23.4546 51.6679 23.0199C51.4659 21.0482 50.5075 19.6173 49.4634 17.9708C49.1211 17.4003 48.95 16.8869 48.95 16.4304Z" fill="#06081A"></path>
    <path d="M90.2392 48.9087C91.6187 49.3674 92.0602 49.7405 92.7654 51.0036C92.9947 52.5885 92.6867 53.4922 91.7385 54.769C90.691 55.2927 89.8113 55.19 88.6577 55.1113C87.5657 54.5088 87.3467 54.2555 86.9462 53.0575C86.8457 52.2861 86.8457 51.4874 86.9462 50.6613C88.0176 49.405 88.5755 48.9635 90.2392 48.9087Z" fill="#06081A"></path>
    <path d="M44.8423 49.2927C45.3992 49.6487 45.8556 50.1051 46.2116 50.662C46.4546 52.3632 46.482 53.0068 45.5064 54.4273C44.2467 55.2865 43.5998 55.3584 42.1039 55.112C41.5471 54.797 41.0907 54.3406 40.7347 53.7427C40.5258 52.5618 40.5122 51.5006 40.7347 50.3197C41.943 48.745 43.0042 48.7587 44.8423 49.2927Z" fill="#06081A"></path>
    <path d="M49.6346 49.2923C51.9486 49.1828 53.5107 49.3539 54.3208 49.8058C54.9575 51.021 55.002 52.0547 54.7693 53.4C54.1736 54.5091 53.9238 54.7076 52.7154 55.1115C52.1814 55.1355 51.644 55.1424 51.11 55.1321C50.6239 55.1252 50.1321 55.1184 49.6346 55.1115V49.2923Z" fill="#06081A"></path>
    <path d="M46.0404 33.0552C46.0404 33.0542 46.0414 33.0534 46.0424 33.0536C46.9164 33.2076 47.2233 33.3422 47.6693 33.8953C47.8422 34.1098 47.9405 34.3746 47.9624 34.6493C48.0079 35.2192 48.0233 35.8214 48.0086 36.4558C48.0018 36.846 47.9984 37.2396 47.9915 37.6436C47.9738 37.9116 47.9424 38.1792 47.8973 38.4462C47.7643 39.2329 47.091 39.7777 46.3012 39.8905V39.8905C45.6087 39.9894 44.8634 39.7632 44.5139 39.1573C44.0908 38.4236 44.0202 37.7159 44.0276 36.6269C44.0276 36.2743 44.0208 35.9218 44.0208 35.5589C44.2124 34.1696 44.6024 33.3071 46.0389 33.0569C46.0397 33.0568 46.0404 33.056 46.0404 33.0552V33.0552Z" fill="#FFFFFF"></path>
    <path d="M32.5193 49.292C34.6142 49.2464 35.9834 49.2464 36.627 49.292C36.8529 49.518 37.0788 49.7439 37.3116 49.9767C37.2249 50.8028 37.1108 51.6015 36.9693 52.3728H36.2847C36.5106 52.698 36.7365 53.0232 36.9693 53.3587C37.4257 54.0707 37.6539 54.6549 37.6539 55.1113C37.1108 55.0679 36.5403 54.9538 35.9424 54.769C35.6434 54.1848 35.4152 53.6142 35.2577 53.0574H33.8885V55.1113H32.5193V49.292Z" fill="#06081A"></path>
    <path d="M95.8462 49.292H97.9L99.9539 53.3997C100.067 52.0441 100.18 50.6886 100.296 49.292H101.323V55.1112H99.6116C99.2008 54.6115 98.8231 54.0409 98.4785 53.3997C98.304 53.0813 98.1294 52.763 97.948 52.4378C97.8179 52.1913 97.6912 51.9449 97.5577 51.6881C97.4448 52.8178 97.3318 53.9474 97.2154 55.1112H95.8462V49.292Z" fill="#06081A"></path>
    <path d="M24.6461 49.2923C27.0423 49.2079 28.5062 49.3631 29.0379 49.7579C29.3049 50.1321 29.4886 50.6045 29.589 51.175C29.4886 51.7455 29.2604 52.2373 28.9044 52.6504C27.7953 53.1912 26.8917 53.1262 25.673 53.0577V55.1116H24.6461V49.2923Z" fill="#06081A"></path>
    <path d="M17.1154 20.5386H22.9346C23.0475 21.4423 23.1605 22.346 23.2769 23.277H17.4577L17.1154 20.5386Z" fill="#B87C1A"></path>
    <path d="M58.1923 49.2925H59.2193C59.3322 50.874 59.4452 52.4554 59.5616 54.0848C60.3534 53.973 61.1522 53.8589 61.9577 53.7425C62.0707 52.274 62.1837 50.8055 62.3 49.2925H63.327C63.3646 50.0695 63.392 50.8466 63.4125 51.6236C63.4297 52.0549 63.4433 52.4896 63.4605 52.9346C63.3715 53.7014 63.1261 54.3039 62.7245 54.742C61.4614 55.3479 60.6159 55.2418 59.2193 55.1083C58.8245 54.8641 58.4822 54.5218 58.1923 54.0814C58.1262 53.3146 58.1045 52.4942 58.1273 51.6202C58.1376 51.1855 58.1444 50.7507 58.1547 50.2989C58.165 49.9634 58.1787 49.6314 58.1923 49.2856V49.2925Z" fill="#06081A"></path>
    <path d="M71.5423 49.2923V50.3192C71.1042 50.3055 70.666 50.2919 70.2142 50.2782C69.7258 50.2508 69.2557 50.2645 68.8039 50.3192C68.2744 50.7483 68.0246 51.3188 68.0542 52.0308C68.0519 52.6971 68.1877 53.2677 68.4616 53.7423H71.5423C71.4294 54.1942 71.3164 54.646 71.2 55.1115C69.3721 55.2873 68.0531 55.0591 67.243 54.4269C66.6097 53.109 66.4283 52.0958 66.75 50.6615C68.0542 48.6009 69.3892 48.8199 71.5423 49.2923Z" fill="#06081A"></path>
    <path d="M43.6647 50.0176C44.2216 50.2184 44.7282 50.6611 45.1846 51.3457C45.0545 52.845 44.8263 53.7579 44.5 54.0842C43.829 54.1276 43.1444 54.1276 42.4461 54.0842C41.9897 53.6278 41.7261 53.0071 41.6554 52.222C41.7261 51.4096 41.8973 50.7752 42.1689 50.3188C42.5819 50.0906 43.0817 49.9902 43.6682 50.0176H43.6647Z" fill="#FFFFFF"></path>
    <path d="M50.6615 49.9771C52.0307 49.9771 52.9299 50.1048 53.3589 50.3604C53.9237 51.3052 53.8792 51.9796 53.7423 53.0578C53.4867 53.4868 53.1444 53.8292 52.7153 54.0847H50.6615V49.9771Z" fill="#FFFFFF"></path>
    <path d="M88.3804 50.8179C88.6605 50.2137 89.3878 49.9968 90.0446 50.1066V50.1066C90.6929 50.2151 91.264 50.6506 91.3814 51.2973C91.4218 51.5197 91.4415 51.7418 91.4484 51.9674C91.4765 52.8904 91.0539 53.8794 90.1496 54.0659C89.9888 54.0991 89.8201 54.119 89.6436 54.1258V54.1258C89.0355 54.1001 88.4435 53.7556 88.328 53.1581C88.2634 52.8236 88.2559 52.485 88.2504 52.0309C88.247 51.7913 88.2401 51.5517 88.2367 51.3052C88.2563 51.1447 88.3042 50.9823 88.3804 50.8179Z" fill="#FFFFFF"></path>
    <path d="M24.6461 49.292L28.4115 49.4631C28.2985 49.6891 28.1856 49.7438 28.0692 49.9766C27.3709 50.1181 26.6863 50.2322 26.0153 50.3189C25.9024 50.9967 25.7894 51.6745 25.673 52.3728H27.7269V53.0574H25.673V55.1112H24.6461V49.292Z" fill="#06081A"></path>
    <path d="M74.623 49.292H79.073V49.9766H77.3615V55.1112H76.3346V49.9766H74.623V49.292Z" fill="#06081A"></path>
    <path d="M88.3153 49.292L89 49.6343C88.887 49.9732 88.774 50.3121 88.6577 50.6612C88.6337 51.2534 88.6303 51.8456 88.6371 52.4378C88.6394 52.7459 88.6428 53.0574 88.6474 53.3723C88.6508 53.6085 88.6542 53.8413 88.6611 54.0843C89.2259 54.1973 89.7907 54.3102 90.3726 54.4266V55.1112C88.9075 55.0291 87.8875 54.6731 87.3124 54.0432C86.8605 52.8178 86.7852 51.9586 86.9495 50.6612C87.4059 50.1044 87.8624 49.648 88.3188 49.292H88.3153Z" fill="#06081A"></path>
    <path d="M17.7999 21.2231H22.2499C22.3629 21.562 22.4759 21.9009 22.5922 22.2501H20.5384V22.9347H17.7999V21.2231Z" fill="#B87C1A"></path>
    <path d="M43.6237 48.9912C44.9313 49.3129 45.4105 49.6005 46.2115 50.6616V51.3462H44.8423C44.6164 51.0074 44.3905 50.6685 44.1577 50.3193C43.9112 50.3672 43.6648 50.4186 43.408 50.4699L40.7346 51.0039C41.3782 49.5183 41.9122 48.9296 43.6237 48.9912Z" fill="#06081A"></path>
    <path d="M82.4962 49.292H83.5231V55.1112H82.4962V49.292Z" fill="#06081A"></path>
    <path d="M62.3 34.915C63.0907 35.7058 63.1558 36.1063 63.368 37.1811C63.4262 37.4618 63.4844 37.7391 63.5426 38.03C63.5837 38.2446 63.6259 38.4613 63.6692 38.6804H61.2731C61.3792 38.1807 61.4853 37.6809 61.5948 37.1811C61.653 36.9038 61.7146 36.6266 61.7763 36.339C61.8995 35.8461 62.0752 35.3714 62.3034 34.915H62.3Z" fill="#FFFFFF"></path>
    <path d="M49.9769 49.292L53.4 49.6343C52.9436 50.0907 52.3594 49.9903 51.6474 50.0177C51.3222 50.004 50.997 49.9903 50.6615 49.9766V53.742C50.4356 53.8538 50.2074 53.9679 49.9769 54.0843V49.292Z" fill="#06081A"></path>
    <path d="M33.5461 50.3193H35.9423V51.6886C35.7141 51.9168 35.2508 52.0377 34.5525 52.0514C34.2216 52.0446 33.8862 52.0377 33.5461 52.0309V50.3193Z" fill="#FFFFFF"></path>
    <path d="M26.0154 50.3193H28.0692V52.0309H26.0154V50.3193Z" fill="#FFFFFF"></path>
    <path d="M88.6577 50.3193H90.0269C89.914 50.5453 89.801 50.7712 89.6846 51.004C89.5716 51.3428 89.4587 51.6817 89.3423 52.0309C89.1141 52.7155 88.8859 53.286 88.6577 53.7424C88.4295 53.5142 88.3005 53.1936 88.2709 52.7805C88.2709 52.5341 88.2709 52.2876 88.2709 52.0309C88.2709 51.7844 88.2709 51.538 88.2709 51.2812C88.3005 50.8682 88.4295 50.5475 88.6577 50.3193Z" fill="#FFFFFF"></path>
  </g>
  <defs>
    <clipPath id="clip0_439_473">
      <rect width="144.796" height="89" fill="#06081A"></rect>
    </clipPath>
  </defs>
</svg>